PathFileType	4	(X/Y/Z)	C:\Users\WrightLab\Desktop\Jo\P3_11.trc
DataRate	CameraRate	NumFrames	NumMarkers	Units	OrigDataRate	OrigDataStartFrame	OrigNumFrames
100.00	100.00	       72	19	mm	100.00	572	       653
Frame#	Time	Headset_Front			Headset_Back			Headset_Left			Headset_Right			Left_Shoulder			Right_Shoulder			Sternum			C7			Left Elbow			Right Elbow			Left Wrist			Right Wrist			Left ASIS			Right ASIS			S2			Left Knee			Right Knee			Left Ankle			Right Ankle			
		X1	Y1	Z1	X2	Y2	Z2	X3	Y3	Z3	X4	Y4	Z4	X5	Y5	Z5	X6	Y6	Z6	X7	Y7	Z7	X8	Y8	Z8	X9	Y9	Z9	X10	Y10	Z10	X11	Y11	Z11	X12	Y12	Z12	X13	Y13	Z13	X14	Y14	Z14	X15	Y15	Z15	X16	Y16	Z16	X17	Y17	Z17	X18	Y18	Z18	X19	Y19	Z19	

572	5.710																																																	14.66431	513.52863	2515.74707							
573	5.720																																																	23.08441	512.31427	2522.11475							
574	5.730																																																	27.11292	512.28741	2527.44482							
575	5.740																																																	31.93447	511.68698	2531.59131							
576	5.750																																																	36.84671	511.68497	2539.13501							
577	5.760																																																	40.51804	510.02640	2543.87207							
578	5.770																																																	43.40124	509.24405	2547.21655							
579	5.780																																																	46.12317	508.45041	2550.60742							
580	5.790																																																	47.85444	508.31348	2553.70801							
581	5.800																																																	49.58493	507.87344	2555.29102							
582	5.810																																																	50.58120	508.88019	2555.67847							
583	5.820																																																	51.59084	509.71008	2555.90405							
584	5.830																																																	52.61439	510.37177	2554.52832							
585	5.840																																																	54.88552	510.68042	2555.06201							
586	5.850																																																	57.02966	511.29471	2554.45825							
587	5.860																																																	58.78426	510.52118	2553.66943							
588	5.870																																																	62.03902	510.09290	2555.99976							
589	5.880																																																	63.84989	509.51904	2555.08496							
590	5.890																																																	66.56718	510.22632	2555.66650							
591	5.900																																																	69.12182	509.54190	2556.55811							
592	5.910																																																	70.24780	509.65372	2555.81299							
593	5.920																																																	73.05427	508.86841	2556.45068							
594	5.930																																																	75.30906	509.67615	2557.13525							
595	5.940																																																	76.48468	509.44061	2556.17065							
596	5.950																																																	79.20493	508.20010	2556.50391							
597	5.960																																																	81.08434	508.46942	2555.89063							
598	5.970																																																	82.87823	507.52139	2556.36475							
599	5.980																																																	84.17606	507.67050	2555.46997							
600	5.990																																																	86.23194	507.66345	2555.98804							
601	6.000																																																	88.16969	507.09866	2556.36841							
602	6.010																																																	89.16721	506.84128	2555.76587							
603	6.020																																																	90.43858	507.01749	2554.64014							
604	6.030																																																	91.97649	506.71356	2554.38379							
605	6.040																																																	94.05160	507.00168	2556.96069							
606	6.050																																																	95.13840	506.98532	2556.51172							
607	6.060																																																	95.86829	507.13416	2556.07227							
608	6.070																																																	97.23660	506.85236	2555.93066							
609	6.080																																																	98.59374	506.59628	2557.08936							
610	6.090																																																	99.71935	506.77954	2559.47437							
611	6.100																																																	100.18698	506.67035	2559.47998							
612	6.110																																																	100.84235	506.72760	2559.37231							
613	6.120																																																	101.28175	506.60648	2559.45508							
614	6.130																																																	101.69865	506.73587	2559.39917							
615	6.140																																																	103.49931	506.30197	2562.29395							
616	6.150																																																	104.02373	506.54736	2563.88184							
617	6.160																																																	104.20443	506.55389	2564.26611							
618	6.170																																																	104.32475	506.65945	2564.23999							
619	6.180																																																	104.42237	506.45306	2564.80322							
620	6.190																																																	104.41714	506.27295	2565.47827							
621	6.200																																																	104.98393	506.16785	2567.28418							
622	6.210																																																	105.40392	505.70572	2568.14478							
623	6.220																																																	106.09702	505.32343	2568.45776							
624	6.230																																																	106.15508	505.28375	2568.39624							
625	6.240																																																	106.20310	505.23770	2568.33813							
626	6.250																																																	106.33459	505.21634	2567.75684							
627	6.260																																																	105.71233	505.66019	2565.76074							
628	6.270																																																	105.25339	506.20395	2564.00122							
629	6.280																																																	105.25430	506.15909	2563.97632							
630	6.290																																																	105.36045	506.19382	2563.43726							
631	6.300																																																	105.53464	506.24704	2563.01978							
632	6.310																																																	105.67495	506.21259	2562.61743							
633	6.320																																																	105.87346	506.23206	2562.31787							
634	6.330																																																	105.92698	505.51245	2561.43945							
635	6.340																																																	106.05328	505.50360	2561.21387							
636	6.350																																																	106.07768	505.44110	2561.47144							
637	6.360																																																	106.14390	505.36600	2561.38501							
638	6.370																																																	106.67601	504.46619	2561.31079							
639	6.380																																																	107.01432	504.76218	2562.26221							
640	6.390																																																	106.98357	504.01678	2561.27930							
641	6.400																																																	106.76015	503.67917	2560.32495							
642	6.410																																																	106.68305	503.63800	2560.35620							
643	6.420																																																	106.54257	503.64313	2560.29199							
